<?xml version="1.0" encoding="UTF-8"?>
<svg version="1.1" xmlns="http://www.w3.org/2000/svg" width="512" height="512">
<path d="M0 0 C0.90717773 0.19867676 1.81435547 0.39735352 2.74902344 0.60205078 C28.00687229 6.2806005 51.10892793 16.72321887 72 32 C73.43661927 33.02207241 74.87393995 34.04316104 76.3125 35.0625 C77.199375 35.701875 78.08625 36.34125 79 37 C79.20753906 36.35933594 79.41507812 35.71867187 79.62890625 35.05859375 C82.15507732 27.9662892 85.38356121 22.33177266 92.296875 18.83984375 C98.30216434 16.97403854 105.62093155 16.74772655 111.55078125 18.9453125 C117.83235753 22.70716044 121.14648173 27.43254786 123.36703491 34.31246948 C124.55900667 39.37350767 124.40539891 44.45432895 124.36328125 49.62890625 C124.36377975 50.8179808 124.36427826 52.00705536 124.36479187 53.23216248 C124.36246162 55.73413778 124.35279552 58.23611588 124.33618164 60.73803711 C124.31255209 64.55408818 124.31563404 68.36944097 124.32226562 72.18554688 C124.31668916 74.62500414 124.30957949 77.06445848 124.30078125 79.50390625 C124.30169266 80.63744034 124.30260406 81.77097443 124.30354309 82.93885803 C124.2365122 90.47376098 124.0901101 97.98074746 119.375 104.25 C118.92898438 104.87390625 118.48296875 105.4978125 118.0234375 106.140625 C110.69121204 112.87834569 102.877531 112.58123623 93.4296875 112.49609375 C92.02059861 112.496249 90.61150929 112.49774225 89.2024231 112.50050354 C86.262196 112.50188168 83.32246021 112.48942593 80.38232422 112.46655273 C76.62529317 112.43811663 72.869074 112.44092716 69.11198235 112.45364285 C66.20705296 112.46061585 63.30230936 112.45279327 60.39740372 112.44038582 C59.01240884 112.43589071 57.62739389 112.43551745 56.24239731 112.43945122 C54.3046309 112.44238042 52.36686889 112.42363576 50.42919922 112.40405273 C49.3296994 112.39864975 48.23019958 112.39324677 47.09738159 112.38768005 C40.96273697 111.61984461 36.96262766 108.58830571 33 104 C28.80362917 98.55605946 28.32315614 93.99675858 28.55078125 87.16015625 C29.41419014 81.08626243 32.45701469 77.19511087 36.9375 73.1875 C39.86655399 71.09531858 42.77005158 69.56780528 46 68 C12.17720278 45.78529604 -25.66835053 35.70225392 -65.93359375 43.96484375 C-100.58966973 51.70160421 -132.5271478 72.00199553 -151.86035156 102.17578125 C-166.55436347 125.69627332 -174.25550852 150.05731882 -174.390625 177.90820312 C-174.55749341 185.42191668 -175.48225153 192.13324261 -180.70776367 197.87719727 C-186.19705778 203.01441774 -191.91153536 204.5686632 -199.34375 204.3671875 C-205.17006249 203.56178548 -210.02873713 201.2471597 -213.92578125 196.8046875 C-223.8260732 182.48588817 -219.46127626 159.94960997 -216.5390625 143.73828125 C-210.06595791 110.85678621 -194.78629533 80.61964472 -171.94921875 56.1015625 C-170.20472294 54.22072333 -168.56532432 52.29381969 -166.9375 50.3125 C-163.63030534 46.44962494 -159.92079425 43.2274062 -156 40 C-155.01257813 39.175 -154.02515625 38.35 -153.0078125 37.5 C-126.97907174 16.14525813 -96.18133004 3.18584889 -63 -2 C-62.34056396 -2.103125 -61.68112793 -2.20625 -61.00170898 -2.3125 C-41.36758675 -4.92323452 -19.2943086 -4.33129598 0 0 Z " fill="#000000" transform="translate(293,78)"/>
<path d="M0 0 C5.00198182 4.76982233 8.80540833 9.1814677 9.09448242 16.33959961 C9.28674435 63.37541291 -11.17967302 109.39297464 -43.77734375 142.77734375 C-44.84906069 143.8540585 -45.92306602 144.92850336 -47 146 C-47.82628906 146.82628906 -48.65257812 147.65257812 -49.50390625 148.50390625 C-82.27502652 179.5006173 -127.77443363 195.21428965 -172.3125 195.25 C-173.06910919 195.25067474 -173.82571838 195.25134949 -174.60525513 195.25204468 C-186.63115817 195.23503806 -198.22616838 194.64073904 -210 192 C-210.77762695 191.82839355 -211.55525391 191.65678711 -212.35644531 191.47998047 C-239.55595013 185.29123588 -263.74510663 173.77855835 -286 157 C-286.81339844 156.3915625 -287.62679687 155.783125 -288.46484375 155.15625 C-288.97144531 154.7746875 -289.47804688 154.393125 -290 154 C-290.04125 155.155 -290.0825 156.31 -290.125 157.5 C-290.90128924 163.49763195 -294.0826902 167.63963116 -298.71875 171.390625 C-304.65554542 174.96276462 -311.2900545 174.80620121 -318 174 C-324.72250675 172.25105516 -328.53385817 167.84086875 -332 162 C-333.08384373 158.74846881 -333.14654671 156.33353385 -333.17700195 152.91137695 C-333.18983719 151.65609695 -333.20267242 150.40081696 -333.21589661 149.10749817 C-333.2240663 147.73442989 -333.23150959 146.36135713 -333.23828125 144.98828125 C-333.24235678 144.29493368 -333.2464323 143.60158611 -333.25063133 142.88722801 C-333.27147928 139.21461665 -333.28578432 135.54204247 -333.29516602 131.86938477 C-333.30620507 128.09109117 -333.34057866 124.31339063 -333.38033772 120.53530598 C-333.40659153 117.6174771 -333.41486573 114.69978739 -333.41844749 111.78185081 C-333.42329389 110.39008789 -333.434852 108.99833036 -333.45348549 107.60668373 C-333.55340254 99.64720138 -333.41956334 93.75673363 -329 87 C-326.96484375 84.94140625 -326.96484375 84.94140625 -324.9375 83.5625 C-324.26589844 83.08941406 -323.59429687 82.61632812 -322.90234375 82.12890625 C-319.21357649 79.9398842 -316.11011704 79.86036444 -311.91137695 79.82299805 C-310.65609695 79.81016281 -309.40081696 79.79732758 -308.10749817 79.78410339 C-306.73442989 79.7759337 -305.36135713 79.76849041 -303.98828125 79.76171875 C-302.9482599 79.75560546 -302.9482599 79.75560546 -301.88722801 79.74936867 C-298.21461665 79.72852072 -294.54204247 79.71421568 -290.86938477 79.70483398 C-287.09109117 79.69379493 -283.31339063 79.65942134 -279.53530598 79.61966228 C-276.6174771 79.59340847 -273.69978739 79.58513427 -270.78185081 79.58155251 C-269.39008789 79.57670611 -267.99833036 79.565148 -266.60668373 79.54651451 C-258.64720138 79.44659746 -252.75673363 79.58043666 -246 84 C-243.94140625 86.03515625 -243.94140625 86.03515625 -242.5625 88.0625 C-242.08941406 88.73410156 -241.61632812 89.40570313 -241.12890625 90.09765625 C-237.68181173 95.90642799 -237.99384622 104.02665385 -239.61328125 110.421875 C-242.58109543 117.16809578 -248.54133781 120.91483547 -255 124 C-225.14235368 146.48105135 -188.04623833 154.50164229 -151.30810547 149.359375 C-120.60665755 144.57911994 -94.74502734 129.98249254 -73 108 C-72.23300781 107.23042969 -71.46601563 106.46085937 -70.67578125 105.66796875 C-48.99410013 82.91116295 -38.94612014 52.49187361 -35.51953125 21.7890625 C-34.53600017 13.08334134 -33.58451818 7.66787907 -27.3125 1.25 C-19.11562163 -4.96974188 -8.63896633 -5.82191209 0 0 Z " fill="#000000" transform="translate(429,242)"/>
</svg>
